<?xml version="1.0" encoding="utf-8"?>
<!-- Generator: Adobe Illustrator 23.0.1, SVG Export Plug-In . SVG Version: 6.00 Build 0)  -->
<svg version="1.1" id="Calque_1" xmlns="http://www.w3.org/2000/svg" xmlns:xlink="http://www.w3.org/1999/xlink" x="0px" y="0px"
	 viewBox="0 0 446 164.9" style="enable-background:new 0 0 446 164.9;" xml:space="preserve">
<style type="text/css">
	.st0{fill:#6EB143;}
</style>
<path class="st0" d="M446,97.6c-19.1-0.5-31.8,3.3-40.1,9.3c0-5.2-0.6-10.4-1.9-15.6c6.5-8,14.4-15.2,24.2-20.5
	c-10.4,3.6-19.2,8.1-26.6,13.3c-3.4-8.7-9.2-17.1-18.3-24.7c5.2-13.1,12.2-25.9,21.9-37.6c-12.8,8.7-22.3,19.8-29.4,32.1
	c-2.7-1.8-5.6-3.5-8.8-5.2c2.9,2.3,5.4,4.7,7.7,7.1C367,69.5,362.3,84.6,359.6,99c-0.4-14.9-2.6-30.5-8-44.7
	c5.1-14.3,12.1-28.6,21.8-41.8c-10.9,9.2-19.4,20.2-26.2,32.1c-6.1-11.5-14.7-21.7-27-29.1c12.1,8.8,19,22.3,22.6,37.6
	c-9.3,19-14.4,39.4-17.2,57.6c0.1-21.8-2.3-47.2-10.6-70.4c3.2-6.3,6.8-12.5,11-18.5c-4.8,4.2-9,8.7-12.9,13.5
	c-5.2-13-12.5-25.1-22.4-35.2c7.9,12.4,13.1,27.5,16.2,43.5c-2.5,3.7-4.8,7.5-6.9,11.4c-5-6.6-11.5-12.5-20.1-17.4
	c8.5,5.7,13.8,13.9,17,23.5c-5.5,11.4-9.4,23.2-12.1,34.5c-2.5-13.2-6.8-26.9-13.9-39.8c2.1-8.3,5.1-16.5,9.2-24.1
	c-5.6,4.9-10.1,10.5-13.7,16.6c-5.7-8.8-12.9-17.1-21.9-24.4c7.3,11.4,12.7,23.2,16.7,34.9c-12.1,29.7-7.7,66.6-3.4,88.2h-5
	c1.3-18.5,1.9-51.3-5.4-80.1c3.8-3.2,7.9-6.1,12.6-8.6c-4.8,1.8-9.2,3.9-13.3,6.1c-3.6-13.1-8.9-25.2-16.6-34.6
	c1.9-2.7,3.9-5.3,6-7.9c-2.7,1.8-5.2,3.8-7.7,5.9c-5.1-5.7-11.2-10.3-18.5-13.3c5.5,4.4,9.8,10.6,13.4,17.9
	c-6.2,6.1-11.4,12.8-15.7,20c-3.2-2.2-6.7-4.4-10.5-6.4c3.4,2.8,6.5,5.6,9.2,8.6c-7.4,13-12.1,27.1-15,40.8
	c-0.6-13.7-2.8-27.8-7.8-40.9c5.4-17.6,12.9-34.7,23.5-49.2c-12,9.7-21.3,23-28.7,37.8c-6-10.9-14.5-20.6-26.3-27.7
	c11.6,8.5,18.6,21.4,22.4,36c-8.2,19-13.5,39.7-16.9,58.1c1-22.6-0.9-48.9-10.2-72.4c2.8-5.3,5.9-10.5,9.4-15.5
	c-4,3.6-7.7,7.4-11.1,11.4c-4.7-10.7-11.1-20.8-19.6-29.5c7,10.9,11.8,23,14.9,35.4c-3.6,4.9-6.9,9.9-9.8,15.1
	c-4.9-6.3-11.3-12-19.6-16.7c8.1,5.5,13.4,13.3,16.6,22.3c-4.9,9.8-8.5,19.9-11.2,29.9c-2.5-11.6-6.2-23.4-11.7-34.3
	c2.1-8.3,5.1-16.3,9.1-23.8c-5.4,4.7-9.8,10.2-13.4,16.1c-5.5-9.1-12.5-17.3-21.3-23.9c7.1,11,12.3,22.4,16.3,33.7
	c-4.2,10-6.6,20.8-7.7,31.6c-4.2-26.5-15.5-53.2-42.1-66.2c11.8,11.6,19.3,26.7,23.8,42.6c-6.5,4.5-11.6,9.4-15.5,14.4
	c-9.1-9.9-21.4-18.6-37.8-24.7c13.6,11,23.6,23.3,30.9,35.7c-2.1,4.5-3.4,9.1-4.2,13.7c-9.2-7-23-12-43.6-13.1
	c67.2,21.5,36.9,73.5,36.9,73.5h380.5C416.5,163.7,378.3,118.8,446,97.6z M66.3,146.8c-4.4-10.3-8.9-23.9-9.6-38
	c6,14.4,8.8,27.9,10.1,38H66.3z M76.6,120.6c-3.1-11.5-8.4-23.8-17.2-35.1c2.2-6.6,5.7-13,11.1-18.8
	C75.5,84.9,76.9,104.1,76.6,120.6z M88.9,146.8c0.4-3.6,0.8-7.7,1.2-12.3c0.7,4.5,1.4,8.6,2.2,12.3H88.9z M105.9,144
	c-3.4-17-6.8-42-4.2-67.3C107.6,103,107.3,127.5,105.9,144z M122.9,144c0.2-16.7,2-41.3,8.9-67C134.1,99.9,128.2,126.1,122.9,144z
	 M138.3,146.8h-1.7c2-5.7,4-12.6,5.6-20.2C141,134.2,139.6,141,138.3,146.8z M145.3,101.5c0.2-13.4-2-27.2-8.8-39.4
	c1.8-5.2,3.9-10.3,6.2-15.4C146.3,65.2,146.5,84.2,145.3,101.5z M171.5,146.8h-1.3c0.3-17,1.8-43.8,7.9-71.6
	C179.8,101.5,175.3,129.2,171.5,146.8z M236.5,93c-0.8-3.3-1.8-6.6-3.2-9.9c0.7-1,1.3-2.1,2-3.1C235.8,84.3,236.2,88.7,236.5,93z
	 M201.1,125c0.7-18.1,3.7-40.3,11.7-62.2c4.5,6.7,7.5,13.8,9.3,20.9C210.6,96.8,204.4,111.7,201.1,125z M216,145.9
	c0.6-12.3,2.6-29,8.6-45C225.1,117.9,220.6,134,216,145.9z M214.8,57.7c2.9-7.1,6.4-14.1,10.5-20.9c4.3,10.4,7.2,22.7,9,35.5
	c-1.6,1.2-3,2.4-4.5,3.7C226.3,69.6,221.4,63.4,214.8,57.7z M236.4,146.8h-4.6c2.1-5.8,4.1-13,5.4-20.9
	C237.1,133.8,236.8,140.8,236.4,146.8z M270.6,140.5c-3-16.1-5.7-38.2-3.9-60.7C271.7,103.1,271.8,124.8,270.6,140.5z M292.1,140.7
	c0.4-16,2.2-38.1,8.2-61.2C301.8,100.4,296.9,123.7,292.1,140.7z M308.1,146.8h-3.3c1.8-5.2,3.6-11.3,5.2-18.1
	C309.4,135.5,308.8,141.6,308.1,146.8z M305.2,63.1c1.1-3.1,2.2-6.1,3.4-9.1c1.2,8.1,1.9,16.2,2.3,24.3
	C309.6,73,307.8,67.9,305.2,63.1z M338.9,143.1c-0.5-17.1,0.2-42.3,6.7-68.9C347.1,99,342.8,125.2,338.9,143.1z M355.5,146.8
	c0.1-0.8,0.3-1.7,0.5-2.5c0,0.9,0,1.7,0.1,2.5H355.5z M370.4,121.4c0.9-17.1,3.9-37.3,11.1-57.3c6.1,8.9,9.3,18.2,10.5,27.5
	C381.7,100.9,374.9,111.3,370.4,121.4z M380.8,146.8h-2.1c2.3-10.4,6.4-24,13.3-37.3C390.6,123.7,385.6,136.8,380.8,146.8z"/>
</svg>
